#N canvas 415 98 571 561 12;
#X obj 289 384 *~ 0.9;
#N canvas 98 102 1140 797 rungler 0;
#X text 24 533 Sept 2016;
#X text 24 544 macumbista@gmail.com;
#X obj 35 304 samphold~;
#X obj 124 305 samphold~;
#X obj 219 305 samphold~;
#X obj 320 306 samphold~;
#X obj 436 305 samphold~;
#X obj 532 305 samphold~;
#X obj 634 305 samphold~;
#X obj 725 305 samphold~;
#X obj 161 103 clip~ 0 1;
#X text 18 401 3 bit DAC;
#X text 23 519 Derek Holzer;
#X text 814 282 shift register based on 4021 CMOS IC;
#X text 195 548 RUNGLER concept and analog design by Rob Hordijk 2009;
#X obj 88 399 expr~ (($v1/8)+($v2/4)+($v3/2));
#X obj 161 54 expr~ $v1 >~ 0.5;
#X obj 161 23 inlet~ O1pls;
#X obj 581 135 inlet~ O2pls;
#X obj 88 470 outlet~ RUN;
#X obj 181 470 outlet~ XOR;
#X obj 581 164 expr~ $v1 > 0;
#X obj 35 332 s~ \$0-1-sh;
#X obj 124 332 s~ \$0-2-sh;
#X obj 219 332 s~ \$0-3-sh;
#X obj 320 332 s~ \$0-4-sh;
#X obj 436 332 s~ \$0-5-sh;
#X obj 532 332 s~ \$0-6-sh;
#X obj 634 332 s~ \$0-7-sh;
#X obj 725 279 r~ \$0-7-sh;
#X obj 634 279 r~ \$0-6-sh;
#X obj 532 279 r~ \$0-5-sh;
#X obj 436 279 r~ \$0-4-sh;
#X obj 320 279 r~ \$0-3-sh;
#X obj 219 279 r~ \$0-2-sh;
#X obj 124 279 r~ \$0-1-sh;
#X obj 161 133 expr~ $v1 ^ $v2;
#X text 366 212 to force the next sample;
#X text 365 198 reset to default 1e+20;
#X obj 309 173 r RESET;
#X msg 309 201 reset 0;
#X connect 2 0 22 0;
#X connect 3 0 23 0;
#X connect 4 0 24 0;
#X connect 5 0 25 0;
#X connect 6 0 26 0;
#X connect 7 0 15 0;
#X connect 7 0 27 0;
#X connect 8 0 15 1;
#X connect 8 0 28 0;
#X connect 9 0 15 2;
#X connect 9 0 36 1;
#X connect 10 0 36 0;
#X connect 15 0 19 0;
#X connect 16 0 10 0;
#X connect 17 0 16 0;
#X connect 18 0 21 0;
#X connect 21 0 2 1;
#X connect 21 0 3 1;
#X connect 21 0 4 1;
#X connect 21 0 5 1;
#X connect 21 0 6 1;
#X connect 21 0 7 1;
#X connect 21 0 8 1;
#X connect 21 0 9 1;
#X connect 29 0 9 0;
#X connect 30 0 8 0;
#X connect 31 0 7 0;
#X connect 32 0 6 0;
#X connect 33 0 5 0;
#X connect 34 0 4 0;
#X connect 35 0 3 0;
#X connect 36 0 2 0;
#X connect 36 0 20 0;
#X connect 39 0 40 0;
#X connect 40 0 9 0;
#X connect 40 0 8 0;
#X connect 40 0 7 0;
#X connect 40 0 6 0;
#X connect 40 0 5 0;
#X connect 40 0 4 0;
#X connect 40 0 3 0;
#X connect 40 0 2 0;
#X restore 289 129 pd rungler;
#N canvas 67 146 321 440 O1 0;
#X obj 60 170 line~;
#X obj 149 170 *~;
#X obj 167 145 line~;
#X obj 167 122 pack 0 50;
#X obj 60 217 +~;
#X obj 60 147 pack 0 50;
#X obj 60 277 mtof~;
#X obj 60 251 clip~ -60 127;
#N canvas 0 38 298 384 tri 0;
#X obj 51 48 inlet~;
#X obj 54 157 *~ -1;
#X obj 54 186 +~ 1;
#X obj 54 245 *~ -4;
#X obj 63 81 phasor~;
#X obj 54 216 max~;
#X obj 54 272 +~ 3;
#X obj 108 157 expr~ $v1 < 0.5;
#X obj 54 300 outlet~ tri;
#X obj 108 216 outlet~ pls;
#X obj 108 188 expr~ ($v1 * 2) - 1;
#X msg 110 51 0;
#X obj 110 23 r RESET;
#X connect 0 0 4 0;
#X connect 1 0 2 0;
#X connect 2 0 5 0;
#X connect 3 0 6 0;
#X connect 4 0 1 0;
#X connect 4 0 5 1;
#X connect 4 0 7 0;
#X connect 5 0 3 0;
#X connect 6 0 8 0;
#X connect 7 0 10 0;
#X connect 10 0 9 0;
#X connect 11 0 4 1;
#X connect 12 0 11 0;
#X restore 60 304 pd tri;
#X obj 60 375 outlet~ tri;
#X obj 149 46 inlet~ RUN;
#X obj 160 375 s~ O1pls;
#X obj 167 97 / 2;
#X obj 60 49 r 01_FRQ;
#X obj 167 70 r 01_RUN;
#X obj 60 74 / 128;
#X obj 60 98 * 141;
#X obj 60 122 - 61;
#X connect 0 0 4 0;
#X connect 1 0 4 1;
#X connect 2 0 1 1;
#X connect 3 0 2 0;
#X connect 4 0 7 0;
#X connect 5 0 0 0;
#X connect 6 0 8 0;
#X connect 7 0 6 0;
#X connect 8 0 9 0;
#X connect 8 1 11 0;
#X connect 10 0 1 0;
#X connect 12 0 3 0;
#X connect 13 0 15 0;
#X connect 14 0 12 0;
#X connect 15 0 16 0;
#X connect 16 0 17 0;
#X connect 17 0 5 0;
#X restore 307 168 pd O1;
#N canvas 787 82 522 188 comparator 0;
#X text 267 101 macumbista@gmail.com;
#X text 267 80 OCT 2016;
#X text 267 91 DEREK HOLZER;
#X obj 122 77 expr~ $v1 > $v2;
#X obj 122 107 outlet~ pwm;
#X obj 224 52 inlet~ tri2;
#X obj 122 51 inlet~ tri1;
#X connect 3 0 4 0;
#X connect 5 0 3 1;
#X connect 6 0 3 0;
#X restore 307 196 pd comparator;
#N canvas 890 145 320 444 O2 0;
#X obj 70 199 line~;
#X obj 147 183 *~;
#X obj 165 157 line~;
#X obj 165 136 pack 0 50;
#X obj 70 239 +~;
#X obj 70 176 pack 0 50;
#X obj 70 286 mtof~;
#X obj 70 263 clip~ -60 127;
#N canvas 0 38 369 370 tri 0;
#X obj 108 50 inlet~;
#X obj 90 145 *~ -1;
#X obj 90 174 +~ 1;
#X obj 90 233 *~ -4;
#X obj 108 83 phasor~;
#X obj 90 204 max~;
#X obj 90 260 +~ 3;
#X obj 156 144 expr~ $v1 < 0.5;
#X obj 90 288 outlet~ tri;
#X obj 156 202 outlet~ pls;
#X obj 156 174 expr~ ($v1 * 2) - 1;
#X msg 164 49 0;
#X obj 164 21 r RESET;
#X connect 0 0 4 0;
#X connect 1 0 2 0;
#X connect 2 0 5 0;
#X connect 3 0 6 0;
#X connect 4 0 1 0;
#X connect 4 0 5 1;
#X connect 4 0 7 0;
#X connect 5 0 3 0;
#X connect 6 0 8 0;
#X connect 7 0 10 0;
#X connect 10 0 9 0;
#X connect 11 0 4 1;
#X connect 12 0 11 0;
#X restore 70 316 pd tri;
#X obj 70 354 outlet~ tri;
#X obj 147 59 inlet~ RUN;
#X obj 161 353 s~ O2pls;
#X obj 165 111 / 2;
#X obj 70 61 r 02_FRQ;
#X obj 165 84 r 02_RUN;
#X obj 70 87 / 128;
#X obj 70 111 * 139;
#X obj 70 135 - 59;
#X connect 0 0 4 0;
#X connect 1 0 4 1;
#X connect 2 0 1 1;
#X connect 3 0 2 0;
#X connect 4 0 7 0;
#X connect 5 0 0 0;
#X connect 6 0 8 0;
#X connect 7 0 6 0;
#X connect 8 0 9 0;
#X connect 8 1 11 0;
#X connect 10 0 1 0;
#X connect 12 0 3 0;
#X connect 13 0 15 0;
#X connect 14 0 12 0;
#X connect 15 0 16 0;
#X connect 16 0 17 0;
#X connect 17 0 5 0;
#X restore 395 168 pd O2;
#X obj 289 98 r~ O1pls;
#X obj 356 97 r~ O2pls;
#X obj 289 276 *~ 0.5;
#X obj 289 242 +~;
#N canvas 66 82 1051 764 filter 0;
#X obj 154 256 mtof~;
#X obj 229 101 line~;
#X msg 229 75 \$1 50;
#X obj 318 153 *~;
#X obj 318 69 / 127;
#X obj 318 125 line~;
#X msg 318 95 \$1 50;
#X obj 412 69 *~ 127;
#X obj 494 153 *~;
#X obj 494 69 / 127;
#X obj 494 125 line~;
#X msg 494 95 \$1 50;
#X obj 588 69 *~ 127;
#X obj 154 202 expr~ $v1+$v2+$v3+$v4;
#X obj 154 229 clip~ 0 127;
#X obj 412 42 inlet~ RUN;
#X obj 142 48 inlet~ SIG;
#X obj 588 42 inlet~ O2tri;
#X obj 142 483 outlet~;
#X msg 202 355 \$1 50;
#X text 303 535 Derek Holzer;
#X text 247 284 FILRES: -3dB to 30dB;
#X obj 229 48 r FIL_FRQ;
#X obj 318 42 r $FIL_RUN;
#X obj 494 42 r FIL_SWP;
#X obj 202 256 r FIL_RES;
#X obj 272 418 line~;
#X msg 272 392 \$1 50;
#X text 303 558 NOV 2021;
#X text 301 579 idholzer@kth.se;
#X text 318 318 gain compensation;
#X obj 202 282 / 128;
#X obj 202 306 * 33;
#X obj 202 330 - 3;
#X obj 272 318 / 128;
#X obj 272 342 * 14;
#X obj 272 366 - 2;
#X obj 142 438 *~;
#X obj 202 381 line;
#X obj 142 387 vcf~ 1;
#X connect 0 0 39 1;
#X connect 1 0 13 0;
#X connect 2 0 1 0;
#X connect 3 0 13 2;
#X connect 4 0 6 0;
#X connect 5 0 3 0;
#X connect 6 0 5 0;
#X connect 7 0 3 1;
#X connect 8 0 13 3;
#X connect 9 0 11 0;
#X connect 10 0 8 0;
#X connect 11 0 10 0;
#X connect 12 0 8 1;
#X connect 13 0 14 0;
#X connect 14 0 0 0;
#X connect 15 0 7 0;
#X connect 16 0 39 0;
#X connect 17 0 12 0;
#X connect 19 0 38 0;
#X connect 22 0 2 0;
#X connect 23 0 4 0;
#X connect 24 0 9 0;
#X connect 25 0 34 0;
#X connect 25 0 31 0;
#X connect 26 0 37 1;
#X connect 27 0 26 0;
#X connect 31 0 32 0;
#X connect 32 0 33 0;
#X connect 33 0 19 0;
#X connect 34 0 35 0;
#X connect 35 0 36 0;
#X connect 36 0 27 0;
#X connect 37 0 18 0;
#X connect 38 0 39 2;
#X connect 39 0 37 0;
#X restore 289 305 pd filter;
#N canvas 187 410 402 327 limiter 0;
#X obj 68 49 inlet~;
#X obj 68 170 outlet~;
#X obj 68 140 *~;
#X obj 99 140 -~;
#X obj 99 111 rzero~ -1;
#X obj 68 81 clip~ 0 0.99;
#X connect 0 0 4 0;
#X connect 0 0 3 1;
#X connect 0 0 5 0;
#X connect 2 0 1 0;
#X connect 3 0 2 1;
#X connect 4 0 3 0;
#X connect 5 0 2 0;
#X restore 289 355 pd limiter;
#X obj 289 330 hip~ 10;
#X obj 289 467 dac~;
#X obj 289 422 *~;
#X obj 323 422 hsl 162 19 0 1 0 0 empty empty VOL -2 -10 0 12 #fcfcfc #000000 #000000 0 1;
#X obj 53 193 vsl 30 128 0 127 0 0 01_FRQ empty 01_FRQ -1 -9 0 10 #00fc04 #000000 #000000 0 1;
#X obj 103 193 vsl 30 128 0 127 0 0 01_RUN empty 01_RUN -1 -9 0 10 #00fc04 #000000 #000000 0 1;
#X obj 153 193 vsl 30 128 0 127 0 0 02_FRQ empty 02_FRQ -1 -9 0 10 #00fc04 #000000 #000000 0 1;
#X obj 203 193 vsl 30 128 0 127 0 0 02_RUN empty 02_RUN -1 -9 0 10 #00fc04 #000000 #000000 0 1;
#X obj 53 353 vsl 30 128 0 127 0 0 FIL_FRQ empty FIL_FRQ -5 -9 0 10 #00fc04 #000000 #000000 0 1;
#X obj 103 352 vsl 30 128 0 127 0 0 FIL_RES empty FIL_RES -5 -9 0 10 #00fc04 #000000 #000000 0 1;
#X obj 153 353 vsl 30 128 0 127 0 0 FIL_RUN empty FIL_RUN -5 -9 0 10 #00fc04 #000000 #000000 0 1;
#X obj 203 353 vsl 30 128 0 127 0 0 FIL_SWP empty FIL_SWP -5 -9 0 10 #00fc04 #000000 #000000 0 1;
#X connect 0 0 13 0;
#X connect 1 0 2 0;
#X connect 1 0 8 0;
#X connect 1 0 4 0;
#X connect 1 0 9 1;
#X connect 2 0 3 0;
#X connect 3 0 8 1;
#X connect 4 0 3 1;
#X connect 4 0 9 2;
#X connect 5 0 1 0;
#X connect 6 0 1 1;
#X connect 7 0 9 0;
#X connect 8 0 7 0;
#X connect 9 0 11 0;
#X connect 10 0 0 0;
#X connect 11 0 10 0;
#X connect 13 0 12 0;
#X connect 13 0 12 1;
#X connect 14 0 13 1;
